<svg width="113" height="113" viewBox="0 0 113 113" fill="none" xmlns="http://www.w3.org/2000/svg">
<g filter="url(#filter0_d_0_230)">
<rect x="16.3333" y="16.3333" width="80.3342" height="80.3342" rx="10.6667" fill="white" shape-rendering="crispEdges"/>
<path d="M56.5003 79.9798C43.553 79.9798 33.0208 69.4475 33.0208 56.5002H36.375C36.375 67.5977 45.4028 76.6255 56.5003 76.6255C67.5977 76.6255 76.6256 67.5977 76.6256 56.5002H79.9798C79.9798 69.4475 69.4476 79.9798 56.5003 79.9798Z" fill="#006B6A"/>
<path d="M56.5003 73.2713C47.2528 73.2713 39.7292 65.7478 39.7292 56.5002H43.0835C43.0835 63.898 49.1026 69.9171 56.5003 69.9171C63.8981 69.9171 69.9172 63.898 69.9172 56.5002H73.2714C73.2714 65.7478 65.7479 73.2713 56.5003 73.2713Z" fill="#006B6A"/>
<path d="M56.5003 63.2088C52.8006 63.2088 49.7918 60.2001 49.7918 56.5004C49.7918 52.8007 52.8006 49.7919 56.5003 49.7919C60.2 49.7919 63.2087 52.8007 63.2087 56.5004C63.2087 60.2001 60.2 63.2088 56.5003 63.2088ZM56.5003 53.1462C54.6504 53.1462 53.1461 54.6505 53.1461 56.5004C53.1461 58.3502 54.6504 59.8546 56.5003 59.8546C58.3501 59.8546 59.8545 58.3502 59.8545 56.5004C59.8545 54.6505 58.3501 53.1462 56.5003 53.1462ZM56.5003 33.0209C52.4479 33.0174 48.4638 34.0644 44.9367 36.0596C41.4095 38.0548 38.4597 40.9301 36.375 44.4051V36.3751H33.0208V49.7919H46.4376V46.4377H39.0785C42.644 40.2576 49.235 36.3751 56.5003 36.3751C61.8754 36.3751 66.9302 38.4681 70.7305 42.2701L73.1037 39.897C70.9287 37.7093 68.3413 35.975 65.4912 34.7947C62.6411 33.6144 59.5851 33.0114 56.5003 33.0209Z" fill="#006B6A"/>
</g>
<defs>
<filter id="filter0_d_0_230" x="0.333252" y="0.333252" width="112.334" height="112.334" filterUnits="userSpaceOnUse" color-interpolation-filters="sRGB">
<feFlood flood-opacity="0" result="BackgroundImageFix"/>
<feColorMatrix in="SourceAlpha" type="matrix" values="0 0 0 0 0 0 0 0 0 0 0 0 0 0 0 0 0 0 127 0" result="hardAlpha"/>
<feOffset/>
<feGaussianBlur stdDeviation="8"/>
<feComposite in2="hardAlpha" operator="out"/>
<feColorMatrix type="matrix" values="0 0 0 0 0 0 0 0 0 0 0 0 0 0 0 0 0 0 0.1 0"/>
<feBlend mode="normal" in2="BackgroundImageFix" result="effect1_dropShadow_0_230"/>
<feBlend mode="normal" in="SourceGraphic" in2="effect1_dropShadow_0_230" result="shape"/>
</filter>
</defs>
</svg>
